<mxfile host="app.diagrams.net" modified="2023-04-06T20:04:08.830Z" agent="Mozilla/5.0 (Macintosh; Intel Mac OS X 10_15_7) AppleWebKit/605.1.15 (KHTML, like Gecko) Version/16.3 Safari/605.1.15" etag="d-rOYajCJquS9HCqlNOv" version="21.1.4" type="google">
  <diagram name="Página-1" id="wy0FQWiLQHH18sYMA9B5">
    <mxGraphModel grid="1" page="1" gridSize="10" guides="1" tooltips="1" connect="1" arrows="1" fold="1" pageScale="1" pageWidth="827" pageHeight="1169" math="0" shadow="0">
      <root>
        <mxCell id="0" />
        <mxCell id="1" parent="0" />
        <mxCell id="OhxYMqT9PW5mXQi_-geR-6" value="" style="edgeStyle=orthogonalEdgeStyle;rounded=0;orthogonalLoop=1;jettySize=auto;html=1;strokeWidth=3;fontSize=15;fontStyle=0" edge="1" parent="1" source="OhxYMqT9PW5mXQi_-geR-1" target="OhxYMqT9PW5mXQi_-geR-2">
          <mxGeometry relative="1" as="geometry" />
        </mxCell>
        <mxCell id="OhxYMqT9PW5mXQi_-geR-1" value="inicio" style="ellipse;whiteSpace=wrap;html=1;strokeWidth=3;fontSize=15;fontStyle=0;fillColor=#b1ddf0;strokeColor=#10739e;" vertex="1" parent="1">
          <mxGeometry x="322" y="10" width="184" height="80" as="geometry" />
        </mxCell>
        <mxCell id="OhxYMqT9PW5mXQi_-geR-7" value="" style="edgeStyle=orthogonalEdgeStyle;rounded=0;orthogonalLoop=1;jettySize=auto;html=1;strokeWidth=3;fontSize=15;fontStyle=0" edge="1" parent="1" source="OhxYMqT9PW5mXQi_-geR-2" target="OhxYMqT9PW5mXQi_-geR-3">
          <mxGeometry relative="1" as="geometry" />
        </mxCell>
        <mxCell id="OhxYMqT9PW5mXQi_-geR-2" value="distância, consumo, gasolina" style="shape=parallelogram;perimeter=parallelogramPerimeter;whiteSpace=wrap;html=1;fixedSize=1;strokeWidth=3;fontSize=15;fontStyle=0;fillColor=#fff2cc;strokeColor=#d6b656;" vertex="1" parent="1">
          <mxGeometry x="297" y="120" width="234" height="60" as="geometry" />
        </mxCell>
        <mxCell id="OhxYMqT9PW5mXQi_-geR-12" value="" style="edgeStyle=orthogonalEdgeStyle;rounded=0;orthogonalLoop=1;jettySize=auto;html=1;fontSize=15;strokeWidth=3;fillColor=#d5e8d4;strokeColor=#82b366;" edge="1" parent="1" source="OhxYMqT9PW5mXQi_-geR-3" target="OhxYMqT9PW5mXQi_-geR-11">
          <mxGeometry relative="1" as="geometry" />
        </mxCell>
        <mxCell id="OhxYMqT9PW5mXQi_-geR-3" value="gasto&amp;lt;- distancia/consumo" style="rounded=0;whiteSpace=wrap;html=1;strokeWidth=3;fontSize=15;fontStyle=0;fillColor=#d5e8d4;strokeColor=#82b366;" vertex="1" parent="1">
          <mxGeometry x="312" y="210" width="204" height="60" as="geometry" />
        </mxCell>
        <mxCell id="OhxYMqT9PW5mXQi_-geR-5" value="fim" style="ellipse;whiteSpace=wrap;html=1;strokeWidth=3;fontSize=15;fontStyle=0;fillColor=#b1ddf0;strokeColor=#10739e;" vertex="1" parent="1">
          <mxGeometry x="354" y="600" width="120" height="80" as="geometry" />
        </mxCell>
        <mxCell id="OhxYMqT9PW5mXQi_-geR-15" value="" style="edgeStyle=orthogonalEdgeStyle;rounded=0;orthogonalLoop=1;jettySize=auto;html=1;fontSize=15;strokeWidth=3;fillColor=#d5e8d4;strokeColor=#82b366;" edge="1" parent="1" source="OhxYMqT9PW5mXQi_-geR-11" target="OhxYMqT9PW5mXQi_-geR-14">
          <mxGeometry relative="1" as="geometry" />
        </mxCell>
        <mxCell id="OhxYMqT9PW5mXQi_-geR-11" value="Precoid&amp;lt;- gasto*gasolina" style="whiteSpace=wrap;html=1;fontSize=15;rounded=0;strokeWidth=3;fontStyle=0;fillColor=#d5e8d4;strokeColor=#82b366;" vertex="1" parent="1">
          <mxGeometry x="322" y="300" width="184" height="60" as="geometry" />
        </mxCell>
        <mxCell id="OhxYMqT9PW5mXQi_-geR-18" value="" style="edgeStyle=orthogonalEdgeStyle;rounded=0;orthogonalLoop=1;jettySize=auto;html=1;strokeWidth=3;fontSize=15;" edge="1" parent="1" source="OhxYMqT9PW5mXQi_-geR-14" target="OhxYMqT9PW5mXQi_-geR-17">
          <mxGeometry relative="1" as="geometry" />
        </mxCell>
        <mxCell id="OhxYMqT9PW5mXQi_-geR-14" value="precoidvt&amp;lt;- precedi*2" style="whiteSpace=wrap;html=1;fontSize=15;rounded=0;strokeWidth=3;fontStyle=0;fillColor=#d5e8d4;strokeColor=#82b366;" vertex="1" parent="1">
          <mxGeometry x="327" y="390" width="174" height="60" as="geometry" />
        </mxCell>
        <mxCell id="OhxYMqT9PW5mXQi_-geR-19" value="" style="edgeStyle=orthogonalEdgeStyle;rounded=0;orthogonalLoop=1;jettySize=auto;html=1;strokeWidth=3;fontSize=15;exitX=0.508;exitY=0.838;exitDx=0;exitDy=0;exitPerimeter=0;" edge="1" parent="1" source="OhxYMqT9PW5mXQi_-geR-17" target="OhxYMqT9PW5mXQi_-geR-5">
          <mxGeometry relative="1" as="geometry">
            <Array as="points">
              <mxPoint x="414" y="595" />
            </Array>
          </mxGeometry>
        </mxCell>
        <mxCell id="OhxYMqT9PW5mXQi_-geR-17" value="precoid&lt;br&gt;precoidvt" style="shape=document;whiteSpace=wrap;html=1;boundedLbl=1;strokeWidth=3;fontSize=15;fillColor=#fff2cc;strokeColor=#d6b656;" vertex="1" parent="1">
          <mxGeometry x="354" y="480" width="120" height="80" as="geometry" />
        </mxCell>
      </root>
    </mxGraphModel>
  </diagram>
</mxfile>
